<?xml version="1.0" encoding="UTF-8" standalone="no"?>
<svg width="500px" height="500px" viewBox="0 0 500 500" version="1.1" xmlns="http://www.w3.org/2000/svg" xmlns:xlink="http://www.w3.org/1999/xlink" xmlns:sketch="http://www.bohemiancoding.com/sketch/ns">
    <!-- Generator: Sketch 3.3.3 (12081) - http://www.bohemiancoding.com/sketch -->
    <title>top tracks</title>
    <desc>Created with Sketch.</desc>
    <defs></defs>
    <g id="Page-1" stroke="none" stroke-width="1" fill="none" fill-rule="evenodd" sketch:type="MSPage">
        <g id="top-tracks" sketch:type="MSLayerGroup">
            <g id="1-copy-2">
                <g id="Page-1">
                    <g id="1">
                        <rect id="Rectangle-1" fill="#1ED75F" sketch:type="MSShapeGroup" x="0" y="0" width="500" height="500"></rect>
                        <text id="top-albums" fill="#000000" sketch:type="MSTextLayer" font-family="Dosis" font-size="80" font-weight="260" sketch:alignment="middle">
                            <tspan x="84.34" y="397">top albums</tspan>
                        </text>
                    </g>
                </g>
            </g>
            <g id="icon" transform="translate(150.000000, 79.000000)" sketch:type="MSShapeGroup">
                <circle id="icon-logo" fill="#000000" cx="100" cy="100" r="100"></circle>
                <path d="M151.209721,104.626642 C153.787297,106.109182 155.299208,107.624522 155.299208,111.383352 C155.299208,115.047063 152.275386,117.739907 148.881911,117.739907 C147.21015,117.739907 145.383262,117.169195 143.821397,116.234407 C128.865464,107.322766 110.639505,104.626642 89.7353914,103.821739 C76.132769,103.297977 67.5096278,104.633854 57.1194001,106.765826 C55.4276579,107.126621 53.2996594,107.769493 52.0308527,107.769493 C48.111206,107.769493 45.5003282,104.702734 45.5003282,101.380138 C45.5003282,97.1096349 48.0013093,94.9842233 51.1117172,94.4003911 C63.8563971,91.5369893 76.551124,89.9035711 89.7353905,89.9035711 C112.314154,89.9035711 133.892675,94.4062985 151.209721,104.626642 Z" id="sausage-medium" fill="#1ED75F"></path>
                <path d="M162.919045,75.0137362 C165.914115,76.7845481 167.670913,78.5945373 167.670913,83.0842507 C167.670913,87.4603501 164.157317,90.6768027 160.214194,90.6768027 C158.271655,90.6768027 156.148863,89.9951184 154.33402,88.8785667 C136.955647,78.2341066 115.777596,75.0137362 91.4876047,74.0523247 C75.6817406,73.4267197 65.6618935,75.0223511 53.5887416,77.5688727 C51.6229849,77.9998225 49.1503105,78.7676966 47.6759929,78.7676966 C43.1214737,78.7676966 40.0877074,75.1046233 40.0877074,71.1359674 C40.0877074,66.0350889 42.9937769,63.4964027 46.6079833,62.7990476 C61.4169424,59.3788733 76.1678574,57.427846 91.4876037,57.427846 C117.723491,57.427846 142.797125,62.8061036 162.919045,75.0137362 Z" id="sausage-large" fill="#1ED75F"></path>
                <path d="M140.216031,130.418107 C142.412416,131.694739 143.700735,132.999615 143.700735,136.236385 C143.700735,139.391247 141.124098,141.710085 138.232475,141.710085 C136.807946,141.710085 135.251231,141.218638 133.920347,140.413682 C121.176206,132.739769 105.645636,130.418107 87.8329756,129.724996 C76.2420086,129.273979 68.8941207,130.424318 60.040476,132.260182 C58.598921,132.570867 56.7856265,133.12445 55.7044603,133.12445 C52.3644795,133.12445 50.1397175,130.48363 50.1397175,127.622506 C50.1397175,123.945129 52.2708352,122.114913 54.9212532,121.612169 C65.7811565,119.146462 76.5984942,117.739907 87.8329748,117.739907 C107.072626,117.739907 125.459957,121.617256 140.216031,130.418107 Z" id="Path" fill="#1ED75F"></path>
            </g>
        </g>
    </g>
</svg>